<svg width="930" height="930" viewBox="0 0 930 930" fill="none" xmlns="http://www.w3.org/2000/svg">
<path d="M525.099 228.643H399.757L324.138 105.37L399.757 174.775L381.111 81.5439L443.264 155.093L462.946 37L481.592 155.093L543.745 81.5439L525.099 174.775L600.719 105.37L525.099 228.643Z" fill="black"/>
<path fill-rule="evenodd" clip-rule="evenodd" d="M66.8791 326.44C57.1033 341.485 51.6115 356.891 52.7148 372.031C54.3462 394.42 67.7375 408.824 84.5493 425.146C85.4666 426.037 86.3951 426.934 87.3319 427.838C100.879 412.26 112.231 397.324 110.761 373.136C109.578 353.666 99.2453 329.921 88.5149 310.302C87.2921 308.066 86.0732 305.9 84.8736 303.817C78.1403 311.005 71.9794 318.59 66.8791 326.44ZM75.9582 289.157C67.4657 297.874 59.5138 307.355 52.9813 317.409C42.0667 334.207 34.7256 353.215 36.1845 373.236C38.3205 402.549 56.3843 420.902 73.0041 437.038C73.7026 437.716 74.3986 438.391 75.0915 439.062C75.5483 439.505 76.0037 439.946 76.4575 440.386C70.5547 447.501 64.9204 455.32 61.3791 464.344C56.6062 476.508 55.8257 490.267 61.4644 506.86C69.2702 529.831 84.0415 541.037 99.3051 548.82C96.2469 556.036 93.4711 563.931 92.7879 572.713C91.9538 583.435 94.2626 594.804 101.436 607.675C114.65 631.386 135.848 640.513 155.195 647.883C152.151 655.861 149.132 664.781 148.976 674.454C148.801 685.293 152.19 696.344 161.121 708.1C169.808 719.537 179.513 725.767 189.85 728.966C196.817 731.123 203.89 731.831 210.615 732.07C209.265 737.861 208.286 744.256 209.059 750.99C210.152 760.53 214.597 769.845 223.973 779.349C244.303 799.957 267.169 798.905 287.297 797.404C288.057 797.348 288.813 797.291 289.566 797.234C290.557 797.159 291.541 797.085 292.52 797.012C294.441 804.872 296.757 813.298 301.19 821.76C305.979 830.903 313.057 839.771 324.237 848.446C341.085 861.519 358.129 871.365 370.926 877.937C377.337 881.229 382.713 883.715 386.507 885.386C388.405 886.222 389.909 886.855 390.952 887.284C391.473 887.498 391.879 887.662 392.161 887.774C392.303 887.83 392.413 887.874 392.491 887.904L392.584 887.941L392.613 887.952L392.622 887.956L392.626 887.957C392.626 887.957 392.629 887.958 395.614 880.227L392.629 887.958L408.276 894L403.568 877.901L395.614 880.227C403.568 877.901 403.567 877.897 403.567 877.897L403.565 877.893L403.561 877.879L403.548 877.834L403.503 877.681C403.464 877.551 403.408 877.365 403.335 877.126C403.189 876.649 402.975 875.959 402.694 875.082C402.132 873.329 401.302 870.822 400.212 867.758C398.036 861.639 394.81 853.248 390.603 844.164C382.385 826.419 369.705 804.399 352.68 792.613C336.642 781.509 320.304 779.448 305.315 779.715C301.632 766.128 295.789 751.161 280.293 735.573C264.262 719.448 247.093 716.364 231.712 715.768C232.303 712.469 232.716 709.006 232.783 705.425C232.963 695.632 230.598 685.185 223.414 673.802C211.097 654.287 193.426 645.1 176.514 638.298C181.258 624.18 184.201 607.374 175.324 586.88C163.114 558.691 140.863 549.094 121.863 540.9C121.605 540.789 121.347 540.678 121.091 540.567C127.077 526.528 132.367 509.546 127.107 486.789C122.495 466.831 111.154 452.079 99.1375 439.542C113.292 423.42 129.221 403.666 127.305 372.131C125.885 348.756 113.946 322.26 103.056 302.348C101.014 298.615 98.985 295.071 97.033 291.772C99.4599 289.529 101.919 287.339 104.393 285.207C118.461 273.084 132.731 263.067 143.51 256.07C148.89 252.577 153.379 249.852 156.507 248.007C158.071 247.085 159.294 246.384 160.117 245.918C160.529 245.685 160.84 245.511 161.045 245.398L161.269 245.274L161.319 245.246L161.329 245.241C161.329 245.241 161.327 245.242 157.361 237.966C153.394 230.689 153.39 230.692 153.39 230.692L153.359 230.709L153.281 230.751C153.215 230.788 153.121 230.84 153 230.907C152.758 231.041 152.407 231.237 151.956 231.493C151.052 232.004 149.744 232.754 148.091 233.729C144.784 235.678 140.091 238.529 134.486 242.167C123.293 249.433 108.375 259.897 93.574 272.651C91.7583 274.215 89.9405 275.818 88.1282 277.456C88.0917 277.401 88.0553 277.345 88.019 277.289C85.9869 274.183 84.2957 271.701 83.1054 269.986C82.5101 269.128 82.0397 268.461 81.714 268.004C81.5512 267.775 81.4246 267.598 81.3366 267.476L81.2339 267.334L81.2048 267.294L81.193 267.277C81.193 267.277 81.191 267.275 74.4902 272.151C67.7894 277.027 67.7883 277.025 67.7883 277.025L67.7908 277.029L67.8073 277.051L67.8846 277.158C67.9554 277.257 68.0646 277.409 68.2096 277.613C68.4996 278.02 68.9327 278.634 69.4893 279.436C70.6027 281.04 72.2084 283.396 74.1489 286.363C74.7244 287.242 75.3288 288.175 75.9582 289.157ZM88.2354 452.167C83.2716 458.265 79.2902 464.073 76.8078 470.399C73.5566 478.684 72.6958 488.398 77.1572 501.527C82.9085 518.452 93.1225 526.918 106.011 533.618C111.356 520.959 115.045 508.199 110.959 490.521C107.379 475.033 98.8319 463.381 88.2354 452.167ZM114.384 555.725C111.691 562.145 109.785 567.922 109.312 573.999C108.76 581.094 110.134 589.237 115.913 599.606C126.024 617.749 141.94 625.057 160.998 632.354C164.964 620.322 166.611 608.465 160.115 593.467C150.575 571.441 133.869 564.147 114.384 555.725ZM170.666 653.833C167.726 661.568 165.655 668.101 165.548 674.721C165.439 681.447 167.379 688.938 174.319 698.074C180.962 706.82 187.792 710.979 194.751 713.133C200.891 715.033 207.413 715.481 214.851 715.589C215.623 712.08 216.146 708.669 216.211 705.118C216.332 698.555 214.852 691.291 209.398 682.649C199.861 667.539 186.382 660.204 170.666 653.833ZM227.655 732.254C225.95 738.753 224.935 743.954 225.525 749.102C226.125 754.335 228.518 760.355 235.772 767.709C250.387 782.524 266.111 782.363 286.065 780.876C286.822 780.819 287.586 780.761 288.357 780.701C285.053 769.655 280.07 758.858 268.538 747.259C255.727 734.371 242.623 732.538 227.655 732.254ZM309.43 796.302C311.066 802.622 312.902 808.401 315.871 814.069C319.494 820.985 324.982 828.046 334.398 835.351C350.206 847.617 366.311 856.935 378.497 863.193C379.471 863.693 380.42 864.173 381.34 864.634C379.709 860.505 377.779 855.913 375.563 851.129C367.486 833.686 356.341 815.306 343.246 806.24C332.22 798.606 321.181 796.462 309.43 796.302Z" fill="black"/>
<path fill-rule="evenodd" clip-rule="evenodd" d="M862.121 326.44C871.897 341.485 877.388 356.891 876.285 372.031C874.654 394.42 861.262 408.824 844.451 425.146C843.533 426.037 842.605 426.934 841.668 427.838C828.121 412.26 816.769 397.324 818.239 373.136C819.422 353.666 829.755 329.921 840.485 310.302C841.708 308.066 842.927 305.9 844.126 303.817C850.86 311.005 857.021 318.59 862.121 326.44ZM853.042 289.157C861.534 297.874 869.486 307.355 876.019 317.409C886.933 334.207 894.274 353.215 892.816 373.236C890.68 402.549 872.616 420.902 855.996 437.038C855.297 437.716 854.601 438.391 853.909 439.062C853.452 439.505 852.996 439.946 852.542 440.386C858.445 447.501 864.08 455.32 867.621 464.344C872.394 476.508 873.174 490.267 867.536 506.86C859.73 529.831 844.959 541.037 829.695 548.82C832.753 556.036 835.529 563.931 836.212 572.713C837.046 583.435 834.737 594.804 827.564 607.675C814.35 631.386 793.152 640.513 773.805 647.883C776.849 655.861 779.868 664.781 780.024 674.454C780.199 685.293 776.81 696.344 767.879 708.1C759.192 719.537 749.487 725.767 739.15 728.966C732.183 731.123 725.11 731.831 718.385 732.07C719.735 737.861 720.713 744.256 719.941 750.99C718.848 760.53 714.403 769.845 705.027 779.349C684.697 799.957 661.831 798.905 641.703 797.404C640.943 797.348 640.187 797.291 639.434 797.234C638.443 797.159 637.459 797.085 636.48 797.012C634.558 804.872 632.243 813.298 627.81 821.76C623.021 830.903 615.943 839.771 604.763 848.446C587.915 861.519 570.871 871.365 558.074 877.937C551.663 881.229 546.287 883.715 542.493 885.386C540.595 886.222 539.091 886.855 538.048 887.284C537.527 887.498 537.121 887.662 536.839 887.774C536.698 887.83 536.587 887.874 536.509 887.904L536.416 887.941L536.387 887.952L536.378 887.956L536.374 887.957C536.374 887.957 536.371 887.958 533.386 880.227L536.371 887.958L520.724 894L525.432 877.901L533.386 880.227C525.432 877.901 525.433 877.897 525.433 877.897L525.435 877.893L525.439 877.879L525.452 877.834L525.497 877.681C525.536 877.551 525.592 877.365 525.665 877.126C525.811 876.649 526.025 875.959 526.306 875.082C526.868 873.329 527.698 870.822 528.788 867.758C530.963 861.639 534.19 853.248 538.397 844.164C546.615 826.419 559.295 804.399 576.32 792.613C592.358 781.509 608.696 779.448 623.685 779.715C627.368 766.128 633.211 751.161 648.707 735.573C664.738 719.448 681.907 716.364 697.288 715.768C696.697 712.469 696.284 709.006 696.217 705.425C696.037 695.632 698.402 685.185 705.586 673.802C717.903 654.287 735.574 645.1 752.486 638.298C747.742 624.18 744.799 607.374 753.676 586.88C765.885 558.691 788.137 549.094 807.137 540.9C807.395 540.789 807.653 540.678 807.909 540.567C801.923 526.528 796.633 509.546 801.893 486.789C806.505 466.831 817.846 452.079 829.863 439.542C815.708 423.42 799.779 403.666 801.695 372.131C803.115 348.756 815.054 322.26 825.944 302.348C827.986 298.615 830.015 295.071 831.967 291.772C829.54 289.529 827.081 287.339 824.607 285.207C810.539 273.084 796.269 263.067 785.49 256.07C780.11 252.577 775.621 249.852 772.493 248.007C770.929 247.085 769.706 246.384 768.883 245.918C768.471 245.685 768.16 245.511 767.955 245.398L767.731 245.274L767.681 245.246L767.671 245.241C767.671 245.241 767.673 245.242 771.639 237.966C775.606 230.689 775.61 230.692 775.61 230.692L775.641 230.709L775.719 230.751C775.785 230.788 775.879 230.84 776 230.907C776.242 231.041 776.593 231.237 777.045 231.493C777.948 232.004 779.256 232.754 780.91 233.729C784.216 235.678 788.909 238.529 794.514 242.167C805.707 249.433 820.625 259.897 835.426 272.651C837.242 274.215 839.059 275.818 840.872 277.456C840.908 277.401 840.945 277.345 840.981 277.289C843.013 274.183 844.704 271.701 845.895 269.986C846.49 269.128 846.96 268.461 847.286 268.004C847.449 267.775 847.575 267.598 847.663 267.476L847.766 267.334L847.795 267.294L847.807 267.277C847.807 267.277 847.809 267.275 854.51 272.151C861.211 277.027 861.212 277.025 861.212 277.025L861.209 277.029L861.193 277.051L861.115 277.158C861.045 277.257 860.935 277.409 860.79 277.613C860.5 278.02 860.067 278.634 859.511 279.436C858.397 281.04 856.792 283.396 854.851 286.363C854.276 287.242 853.671 288.175 853.042 289.157ZM840.765 452.167C845.728 458.265 849.71 464.073 852.192 470.399C855.443 478.684 856.304 488.398 851.843 501.527C846.091 518.452 835.877 526.918 822.989 533.618C817.644 520.959 813.955 508.199 818.041 490.521C821.621 475.033 830.168 463.381 840.765 452.167ZM814.616 555.725C817.309 562.145 819.215 567.922 819.688 573.999C820.24 581.094 818.866 589.237 813.087 599.606C802.976 617.749 787.06 625.057 768.002 632.354C764.036 620.322 762.389 608.465 768.885 593.467C778.425 571.441 795.131 564.147 814.616 555.725ZM758.334 653.833C761.274 661.568 763.345 668.101 763.452 674.721C763.56 681.447 761.621 688.938 754.681 698.074C748.038 706.82 741.208 710.979 734.249 713.133C728.109 715.033 721.587 715.481 714.149 715.589C713.377 712.08 712.854 708.669 712.789 705.118C712.667 698.555 714.148 691.291 719.602 682.649C729.139 667.539 742.618 660.204 758.334 653.833ZM701.345 732.254C703.05 738.753 704.065 743.954 703.475 749.102C702.875 754.335 700.482 760.355 693.228 767.709C678.613 782.524 662.889 782.363 642.935 780.876C642.178 780.819 641.414 780.761 640.643 780.701C643.947 769.655 648.93 758.858 660.462 747.259C673.273 734.371 686.377 732.538 701.345 732.254ZM619.57 796.302C617.934 802.622 616.098 808.401 613.129 814.069C609.506 820.985 604.018 828.046 594.603 835.351C578.794 847.617 562.689 856.935 550.503 863.193C549.529 863.693 548.58 864.173 547.66 864.634C549.291 860.505 551.221 855.913 553.437 851.129C561.514 833.686 572.659 815.306 585.754 806.24C596.78 798.606 607.819 796.462 619.57 796.302Z" fill="black"/>
<path fill-rule="evenodd" clip-rule="evenodd" d="M461.91 845.006C364.742 787.333 168.073 620.986 158.745 417.356C147.085 162.818 431.927 192.764 461.91 340.828C491.894 192.764 776.736 162.911 765.076 417.449C755.748 621.08 559.079 787.333 461.91 845.006ZM382.147 432.716V603.445C382.147 603.511 382.148 603.567 382.15 603.624C382.153 603.679 382.156 603.734 382.163 603.798C382.57 607.818 391.195 687.601 436.013 703.087C516.854 731.02 539.254 520.318 541.482 496.961C541.613 495.585 541.026 494.352 539.947 493.489L530.924 486.271C528.632 484.437 525.213 485.502 524.368 488.312L494.023 589.138V401.639C494.023 399.35 492.168 397.495 489.879 397.495H475.011C472.871 397.495 471.083 399.126 470.886 401.257L459.839 520.768V374.705C459.839 372.417 457.983 370.562 455.695 370.562H439.908C437.719 370.562 435.908 372.264 435.772 374.449L426.69 520.768V391.28C426.69 388.991 424.835 387.136 422.547 387.136H411.979C409.774 387.136 407.955 388.863 407.841 391.065L400.793 526.983V432.716C400.793 430.427 398.938 428.572 396.65 428.572H386.291C384.002 428.572 382.147 430.427 382.147 432.716Z" fill="black"/>
</svg>
