<svg width="1143" height="408" viewBox="0 0 1143 408" fill="none" xmlns="http://www.w3.org/2000/svg">
<path fill-rule="evenodd" clip-rule="evenodd" d="M84.8141 291.167C99.6659 301.747 137.04 318.59 193.127 318.233C194.745 318.223 195.995 316.813 195.889 315.201C194.412 292.644 205.749 247.906 263.281 227.58C284.744 222.515 327.887 200.774 328.757 154.326C328.783 152.911 328.821 151.482 328.86 150.048C329.502 125.93 330.175 100.641 276.322 120.413C257.98 127.147 219.981 136.555 213.694 120.76C213.604 120.535 213.498 120.319 213.354 120.125C200.652 102.963 139.412 95.3695 94.2927 129.095C92.1904 130.666 89.9866 132.817 87.1953 135.542C78.8039 143.733 65.1033 157.107 32.8919 175.489C15.0126 185.691 14.8977 195.282 14.6946 212.23C14.5953 220.521 14.4749 230.571 12.2438 243.316C10.6855 252.217 9.18439 259.561 7.94719 265.615C3.79187 285.946 2.61357 291.711 12.2438 292.965C21.6998 294.197 32.5492 287.112 37.5286 282.821C38.0496 282.372 38.7036 282.118 39.3917 282.112C52.432 281.991 79.2242 278.05 90.2174 262.85C100.484 248.654 100.133 239.903 99.8004 231.599C99.6752 228.476 99.5526 225.416 99.9981 222.154C101.628 210.216 103.258 202.077 109.507 190.682C108.33 193.485 106.084 204.41 106.518 225.681C106.667 232.952 107.06 238.884 107.39 243.882C108.269 257.16 108.711 263.844 102.987 271.532C98.0433 278.17 90.4375 283.574 85.2016 286.644C83.506 287.638 83.2135 290.027 84.8141 291.167ZM181.232 151.071C176.812 141.967 180.689 135.877 184.492 134.521C188.296 133.164 194.816 134.25 198.891 140.761C202.967 147.272 202.152 152.427 199.435 155.954C196.718 159.481 185.579 160.024 181.232 151.071Z" fill="white"/>
<path d="M206.227 389.551C206.227 399.74 201.848 408 196.446 408C191.045 408 186.666 399.74 186.666 389.551C186.666 379.362 191.045 371.102 196.446 371.102C201.848 371.102 206.227 379.362 206.227 389.551Z" fill="white"/>
<path d="M202.464 332.678L200.178 360.53C200.064 361.913 198.94 362.989 197.551 363.002C166.003 363.286 99.2734 355.576 63.2324 327.664C62.5926 327.168 62.2203 326.411 62.2331 325.602C62.4 314.994 66.8074 304.112 69.9105 298.237C70.5943 296.942 72.2276 296.529 73.5116 297.235C130.152 328.371 178.802 329.062 199.891 329.761C201.433 329.812 202.59 331.142 202.464 332.678Z" fill="white"/>
<path fill-rule="evenodd" clip-rule="evenodd" d="M101.95 0L0 99.4013L25.8901 106.012L31.618 107.474L56.3626 113.792L61.163 141.5C113.348 94.837 145.983 94.4365 206.438 99.5606L201.218 72.1187L240.903 29.9237L101.95 0ZM53.778 99.318L52.3561 94.1034C67.5074 60.8658 161.103 33.0867 194.254 54.0687L194.68 58.2677C159.147 40.206 74.6539 67.5106 53.778 99.318Z" fill="white"/>
<path d="M37.3809 126.877L31.618 107.474L25.8901 106.012L32.1463 128.076C30.8208 128.21 29.0469 132.409 29.7487 135.24C31.2602 141.339 36.9591 140.316 37.8203 140.005C37.8852 139.982 37.9762 139.953 38.0886 139.918C39.4671 139.485 44.0598 138.043 43.1122 132.771C42.2923 128.21 38.9497 126.941 37.3809 126.877Z" fill="white"/>
<path d="M494.2 98.2001C493.8 97.9334 492.533 97.5334 490.4 97.0001C488.4 96.4668 485.933 95.9334 483 95.4001C480.067 94.8668 477 94.6001 473.8 94.6001C462.2 94.6001 453.267 98.3334 447 105.8C440.733 113.267 437.6 123.933 437.6 137.8C437.6 151.8 440.8 162.6 447.2 170.2C453.6 177.8 462.467 181.6 473.8 181.6C477.133 181.6 480.267 181.2 483.2 180.4C486.133 179.6 488.6 178.867 490.6 178.2C492.6 177.4 493.8 176.933 494.2 176.8L498.4 159.4L517.8 163.8L511.8 192.2C511.8 192.2 510.2 192.933 507 194.4C503.8 195.867 499.333 197.333 493.6 198.8C487.867 200.267 481.267 201 473.8 201C461.8 201 451.267 198.733 442.2 194.2C433.267 189.533 426.267 182.533 421.2 173.2C416.133 163.733 413.6 151.933 413.6 137.8C413.6 124.733 416.067 113.533 421 104.2C425.933 94.8668 432.933 87.7334 442 82.8001C451.067 77.7334 461.6 75.2001 473.6 75.2001C482 75.2001 489.067 76.0668 494.8 77.8001C500.667 79.4001 505.067 81.0668 508 82.8001C510.933 84.5334 512.4 85.4001 512.4 85.4001L518 113.6L498.4 118L494.2 98.2001Z" fill="white"/>
<path d="M579.341 103.8C589.341 103.8 597.874 105.733 604.941 109.6C612.007 113.467 617.407 119.067 621.141 126.4C624.874 133.6 626.741 142.267 626.741 152.4C626.741 167.6 622.541 179.467 614.141 188C605.874 196.533 594.274 200.8 579.341 200.8C569.607 200.8 561.207 198.867 554.141 195C547.207 191.133 541.874 185.6 538.141 178.4C534.541 171.067 532.741 162.4 532.741 152.4C532.741 142.267 534.541 133.6 538.141 126.4C541.874 119.067 547.207 113.467 554.141 109.6C561.207 105.733 569.607 103.8 579.341 103.8ZM579.341 122.4C571.341 122.4 565.274 125 561.141 130.2C557.141 135.267 555.141 142.667 555.141 152.4C555.141 162.133 557.141 169.6 561.141 174.8C565.274 180 571.341 182.6 579.341 182.6C587.607 182.6 593.807 180 597.941 174.8C602.074 169.6 604.141 162.133 604.141 152.4C604.141 142.667 602.074 135.267 597.941 130.2C593.807 125 587.607 122.4 579.341 122.4Z" fill="white"/>
<path d="M640.878 197V178.8H657.678V86.8001L638.478 81.0001L644.078 62.6001L680.478 74.0001V178.8H697.278V197H640.878Z" fill="white"/>
<path d="M707.87 197V178.8H724.67V86.8001L705.47 81.0001L711.07 62.6001L747.47 74.0001V178.8H764.27V197H707.87Z" fill="white"/>
<path d="M863.862 186C857.862 191.067 851.729 194.8 845.462 197.2C839.196 199.6 832.729 200.8 826.062 200.8C816.062 200.8 807.262 198.8 799.662 194.8C792.196 190.667 786.396 185 782.262 177.8C778.129 170.467 776.062 162.067 776.062 152.6C776.062 142.733 777.996 134.2 781.862 127C785.862 119.667 791.329 114 798.262 110C805.196 105.867 813.262 103.8 822.462 103.8C831.662 103.8 839.662 105.667 846.462 109.4C853.262 113.133 858.529 118.4 862.262 125.2C865.996 131.867 867.862 139.733 867.862 148.8C867.862 150.4 867.729 152.2 867.462 154.2C867.329 156.2 867.129 158.133 866.862 160H798.062C798.462 165.2 799.996 169.533 802.662 173C805.329 176.333 808.662 178.8 812.662 180.4C816.796 182 821.262 182.8 826.062 182.8C831.662 182.8 836.996 181.933 842.062 180.2C847.129 178.333 851.729 175.733 855.862 172.4L863.862 186ZM845.262 144.4C845.129 137.733 843.062 132.4 839.062 128.4C835.196 124.267 829.862 122.2 823.062 122.2C816.662 122.2 811.062 124.267 806.262 128.4C801.596 132.4 798.996 137.733 798.462 144.4H845.262Z" fill="white"/>
<path d="M1076.56 186C1070.56 191.067 1064.42 194.8 1058.16 197.2C1051.89 199.6 1045.42 200.8 1038.76 200.8C1028.76 200.8 1019.96 198.8 1012.36 194.8C1004.89 190.667 999.091 185 994.958 177.8C990.824 170.467 988.758 162.067 988.758 152.6C988.758 142.733 990.691 134.2 994.558 127C998.558 119.667 1004.02 114 1010.96 110C1017.89 105.867 1025.96 103.8 1035.16 103.8C1044.36 103.8 1052.36 105.667 1059.16 109.4C1065.96 113.133 1071.22 118.4 1074.96 125.2C1078.69 131.867 1080.56 139.733 1080.56 148.8C1080.56 150.4 1080.42 152.2 1080.16 154.2C1080.02 156.2 1079.82 158.133 1079.56 160H1010.76C1011.16 165.2 1012.69 169.533 1015.36 173C1018.02 176.333 1021.36 178.8 1025.36 180.4C1029.49 182 1033.96 182.8 1038.76 182.8C1044.36 182.8 1049.69 181.933 1054.76 180.2C1059.82 178.333 1064.42 175.733 1068.56 172.4L1076.56 186ZM1057.96 144.4C1057.82 137.733 1055.76 132.4 1051.76 128.4C1047.89 124.267 1042.56 122.2 1035.76 122.2C1029.36 122.2 1023.76 124.267 1018.96 128.4C1014.29 132.4 1011.69 137.733 1011.16 144.4H1057.96Z" fill="white"/>
<path d="M577.2 241.2C576.8 240.933 575.533 240.533 573.4 240C571.4 239.467 568.933 238.933 566 238.4C563.067 237.867 560 237.6 556.8 237.6C545.2 237.6 536.267 241.333 530 248.8C523.733 256.267 520.6 266.933 520.6 280.8C520.6 294.8 523.8 305.6 530.2 313.2C536.6 320.8 545.467 324.6 556.8 324.6C560.133 324.6 563.267 324.2 566.2 323.4C569.133 322.6 571.6 321.867 573.6 321.2C575.6 320.4 576.8 319.933 577.2 319.8L581.4 302.4L600.8 306.8L594.8 335.2C594.8 335.2 593.2 335.933 590 337.4C586.8 338.867 582.333 340.333 576.6 341.8C570.867 343.267 564.267 344 556.8 344C544.8 344 534.267 341.733 525.2 337.2C516.267 332.533 509.267 325.533 504.2 316.2C499.133 306.733 496.6 294.933 496.6 280.8C496.6 267.733 499.067 256.533 504 247.2C508.933 237.867 515.933 230.733 525 225.8C534.067 220.733 544.6 218.2 556.6 218.2C565 218.2 572.067 219.067 577.8 220.8C583.667 222.4 588.067 224.067 591 225.8C593.933 227.533 595.4 228.4 595.4 228.4L601 256.6L581.4 261L577.2 241.2Z" fill="white"/>
<path d="M683.484 336C674.151 341.2 664.618 343.8 654.884 343.8C642.484 343.8 633.018 341.4 626.484 336.6C620.084 331.8 616.884 324.8 616.884 315.6C616.751 297.067 628.951 287.8 653.484 287.8H675.884C675.884 279.667 674.218 273.733 670.884 270C667.551 266.133 663.218 264.2 657.884 264.2C654.951 264.2 652.151 264.4 649.484 264.8C646.951 265.2 644.418 265.8 641.884 266.6L640.084 276.4L621.284 273.8L624.884 252.6C630.218 250.733 635.618 249.333 641.084 248.4C646.684 247.333 652.484 246.8 658.484 246.8C671.551 246.8 681.484 250.267 688.284 257.2C695.218 264 698.684 274.067 698.684 287.4V320.6L715.484 326L709.284 344.8L683.484 336ZM654.084 302.6C649.551 302.6 646.084 303.733 643.684 306C641.284 308.267 640.084 311.4 640.084 315.4C640.084 323 645.284 326.8 655.684 326.8C663.018 326.8 669.751 324.867 675.884 321V302.8L654.084 302.6Z" fill="white"/>
<path d="M722.586 340V321.8H739.586V273.2L720.386 266.6L726.186 248.4L753.986 258C759.186 254.533 764.453 251.8 769.786 249.8C775.119 247.8 781.453 246.8 788.786 246.8C797.053 246.8 803.719 248.4 808.786 251.6C813.986 254.8 817.786 259.267 820.186 265C822.719 270.6 823.986 277 823.986 284.2V321.8H840.586V340H792.986V321.8H801.386V287.2C801.386 280.8 799.986 275.8 797.186 272.2C794.386 268.467 789.786 266.6 783.386 266.6C779.519 266.6 775.653 267.267 771.786 268.6C768.053 269.933 764.853 271.533 762.186 273.4V321.8H770.386V340H722.586Z" fill="white"/>
<path d="M923.758 340V321.8H940.758V273.2L921.558 266.6L927.358 248.4L955.158 258C960.358 254.533 965.624 251.8 970.958 249.8C976.291 247.8 982.624 246.8 989.958 246.8C998.224 246.8 1004.89 248.4 1009.96 251.6C1015.16 254.8 1018.96 259.267 1021.36 265C1023.89 270.6 1025.16 277 1025.16 284.2V321.8H1041.76V340H994.158V321.8H1002.56V287.2C1002.56 280.8 1001.16 275.8 998.358 272.2C995.558 268.467 990.958 266.6 984.558 266.6C980.691 266.6 976.824 267.267 972.958 268.6C969.224 269.933 966.024 271.533 963.358 273.4V321.8H971.558V340H923.758Z" fill="white"/>
<path d="M1138.27 329C1132.27 334.067 1126.14 337.8 1119.87 340.2C1113.6 342.6 1107.14 343.8 1100.47 343.8C1090.47 343.8 1081.67 341.8 1074.07 337.8C1066.6 333.667 1060.8 328 1056.67 320.8C1052.54 313.467 1050.47 305.067 1050.47 295.6C1050.47 285.733 1052.4 277.2 1056.27 270C1060.27 262.667 1065.74 257 1072.67 253C1079.6 248.867 1087.67 246.8 1096.87 246.8C1106.07 246.8 1114.07 248.667 1120.87 252.4C1127.67 256.133 1132.94 261.4 1136.67 268.2C1140.4 274.867 1142.27 282.733 1142.27 291.8C1142.27 293.4 1142.14 295.2 1141.87 297.2C1141.74 299.2 1141.54 301.133 1141.27 303H1072.47C1072.87 308.2 1074.4 312.533 1077.07 316C1079.74 319.333 1083.07 321.8 1087.07 323.4C1091.2 325 1095.67 325.8 1100.47 325.8C1106.07 325.8 1111.4 324.933 1116.47 323.2C1121.54 321.333 1126.14 318.733 1130.27 315.4L1138.27 329ZM1119.67 287.4C1119.54 280.733 1117.47 275.4 1113.47 271.4C1109.6 267.267 1104.27 265.2 1097.47 265.2C1091.07 265.2 1085.47 267.267 1080.67 271.4C1076 275.4 1073.4 280.733 1072.87 287.4H1119.67Z" fill="white"/>
<path d="M853.812 250.6H893.412V321.8H910.012V340H853.812V321.8H870.412V268.6H853.812V250.6Z" fill="white"/>
<path fill-rule="evenodd" clip-rule="evenodd" d="M918.559 173.912C919.863 173.971 921.196 174 922.559 174C930.426 174 937.626 172.867 944.159 170.6C950.826 168.2 956.093 164.467 959.959 159.4C963.959 154.333 965.959 147.733 965.959 139.6C965.959 136.8 965.559 133.8 964.759 130.6C963.959 127.4 962.426 124.6 960.159 122.2L984.559 118.4L977.559 98.6001L947.359 109.2C943.759 107.2 940.026 105.8 936.159 105C932.293 104.2 927.826 103.8 922.759 103.8C909.693 103.8 899.226 107.133 891.359 113.8C883.626 120.333 879.759 129.267 879.759 140.6C879.759 151.267 883.493 159.533 890.959 165.4C893.761 167.513 896.961 169.237 900.559 170.572V205.6H931.959C938.493 205.6 942.826 206.467 944.959 208.2C947.093 209.933 948.159 212.2 948.159 215C948.159 216.867 947.426 218.6 945.959 220.2C944.493 221.933 941.959 223.267 938.359 224.2C934.893 225.267 930.159 225.8 924.159 225.8C917.493 225.8 911.093 225 904.959 223.4C903.811 223.125 902.299 222.637 900.559 222.007L893 240C896.24 240.983 900.235 242.702 904.159 243.4C910.159 244.6 916.826 245.2 924.159 245.2C932.559 245.2 940.226 244.133 947.159 242C954.226 240 959.826 236.733 963.959 232.2C968.093 227.8 970.159 222 970.159 214.8C970.159 205.867 967.226 199 961.359 194.2C955.493 189.267 946.626 186.8 934.759 186.8H918.559V173.912ZM886.5 238.369L894.5 219.645C889.987 217.797 885.062 215.634 881.128 213.906C879.119 213.024 877.369 212.256 876.062 211.7L867.862 229.5C868.408 229.758 869.474 230.281 870.855 230.958C875.083 233.031 882.264 236.551 886.5 238.369ZM938.959 152.2C935.093 155.4 929.759 157 922.959 157C916.159 157 910.826 155.4 906.959 152.2C903.093 148.867 901.159 144.6 901.159 139.4C901.159 133.4 903.026 128.867 906.759 125.8C910.626 122.6 916.026 121 922.959 121C929.893 121 935.226 122.6 938.959 125.8C942.826 128.867 944.759 133.4 944.759 139.4C944.759 144.6 942.826 148.867 938.959 152.2Z" fill="white"/>
</svg>
