<svg width="216" height="100" viewBox="0 0 216 100" fill="none" xmlns="http://www.w3.org/2000/svg">
<path d="M52 32H49V33.1252V41V44V50V53V67.6232V69H52V67.6236V53V50V44V41V33.1252V32Z" fill="white"/>
<path d="M40 50H49H52H61V53H52H49H40V50Z" fill="white"/>
<path d="M38 41H49H52H63V44H52H49H38V41Z" fill="white"/>
<path d="M67 38H81V41H67V38Z" fill="white"/>
<path d="M67 44H79V47H67V44Z" fill="white"/>
<path d="M66 50H77V53H66V50Z" fill="white"/>
<path d="M34 38H20V41H34V38Z" fill="white"/>
<path d="M34 44H22V47H34V44Z" fill="white"/>
<path d="M35 50H24V53H35V50Z" fill="white"/>
<path fill-rule="evenodd" clip-rule="evenodd" d="M42.7617 31.435C45.6292 30.6791 48.6764 30 50.5 30C52.3236 30 55.3708 30.6791 58.2383 31.435C61.1719 32.2037 64.1292 33.1134 65.8682 33.6644C66.5953 33.8972 67.2399 34.3241 67.7279 34.8962C68.216 35.4682 68.5277 36.1621 68.6273 36.8982C70.2025 48.3706 66.5474 56.8729 62.1127 62.4976C60.2322 64.9038 57.9898 67.0226 55.4606 68.7834C54.5861 69.3927 53.6595 69.9285 52.6909 70.385C51.9509 70.7232 51.1554 71 50.5 71C49.8446 71 49.0517 70.7232 48.3091 70.385C47.3405 69.9286 46.4139 69.3928 45.5394 68.7834C43.0102 67.0226 40.7679 64.9037 38.8873 62.4976C34.4526 56.8729 30.7975 48.3706 32.3727 36.8982C32.4723 36.1621 32.784 35.4682 33.2721 34.8962C33.7601 34.3241 34.4047 33.8972 35.1318 33.6644C37.6562 32.8618 40.2003 32.1185 42.7617 31.435ZM49 33.1252C47.5532 33.33 45.7459 33.7605 44.0166 34.225C41.8705 34.8085 39.739 35.443 37.6239 36.1281C37.0148 36.3269 36.4747 36.6913 36.0658 37.1797C35.6569 37.668 35.3957 38.2604 35.3122 38.8887C33.9925 48.6822 37.0549 55.9403 40.7704 60.7419C42.3461 62.7958 44.2248 64.6046 46.3438 66.1078C47.0765 66.628 47.8529 67.0854 48.6644 67.475C48.7752 67.5264 48.8874 67.5762 49 67.6232V53H40V50H49V44H38V41H49V33.1252ZM52 33.1252C53.4468 33.33 55.2541 33.7605 56.9834 34.225C59.4413 34.8812 61.9191 35.6578 63.3761 36.1281C63.9852 36.3269 64.5253 36.6913 64.9342 37.1797C65.3431 37.668 65.6043 38.2604 65.6878 38.8887C67.0075 48.6822 63.9451 55.9403 60.2296 60.7419C58.654 62.7959 56.7753 64.6047 54.6562 66.1078C53.9235 66.628 53.1471 67.0853 52.3356 67.475C52.2249 67.5265 52.1127 67.5764 52 67.6236V53H61V50H52V44H63V41H52V33.1252Z" fill="white"/>
<path d="M110.34 63.5361H115.048V66.0001H101.408V63.5361H105.412V37.6641H101.408V35.2001H125.212V42.4161H122.396V38.6321L121.516 37.6641H110.34V49.7201H118.304L118.964 49.0601V46.9481H121.78V55.0001H118.964V52.8881L118.304 52.1841H110.34V63.5361ZM128.822 37.6641V35.2001H133.398C134.718 35.2001 136.141 35.1414 137.666 35.0241C139.221 34.9068 140.717 34.8481 142.154 34.8481C143.767 34.8481 145.351 35.0094 146.906 35.3321C148.461 35.6254 149.839 36.1388 151.042 36.8721C152.245 37.6054 153.213 38.5881 153.946 39.8201C154.709 41.0228 155.09 42.5334 155.09 44.3521C155.09 46.0828 154.709 47.5788 153.946 48.8401C153.183 50.0721 152.171 51.0841 150.91 51.8761C149.678 52.6681 148.241 53.2548 146.598 53.6361C144.985 54.0174 143.313 54.2081 141.582 54.2081C141.406 54.2081 141.142 54.2081 140.79 54.2081C140.438 54.2081 140.057 54.2081 139.646 54.2081C139.265 54.1788 138.898 54.1494 138.546 54.1201C138.194 54.0908 137.93 54.0614 137.754 54.0321V63.5361H142.154V66.0001H128.822V63.5361H132.826V37.6641H128.822ZM137.754 51.5241C137.901 51.5828 138.121 51.6268 138.414 51.6561C138.737 51.6561 139.074 51.6708 139.426 51.7001C139.778 51.7294 140.115 51.7441 140.438 51.7441C140.79 51.7441 141.054 51.7441 141.23 51.7441C142.374 51.7441 143.445 51.6121 144.442 51.3481C145.469 51.0548 146.363 50.6148 147.126 50.0281C147.889 49.4414 148.49 48.6788 148.93 47.7401C149.37 46.8014 149.59 45.6721 149.59 44.3521C149.59 41.9468 148.827 40.1721 147.302 39.0281C145.806 37.8841 143.753 37.3121 141.142 37.3121C140.35 37.3121 139.69 37.3414 139.162 37.4001C138.634 37.4294 138.165 37.4881 137.754 37.5761V51.5241ZM163.889 66.0001H153.109V63.5361H156.541L167.937 35.2001H172.601L183.029 63.5361H186.329V66.0001H173.745V63.5361H177.661L174.801 55.7921H163.097L160.105 63.5361H163.889V66.0001ZM164.109 53.3281H174.053L170.445 43.1641L169.345 38.5001H169.169L167.893 43.2521L164.109 53.3281Z" fill="white"/>
</svg>
