<svg width="2720" height="1024" viewBox="0 0 2720 1024" fill="none" xmlns="http://www.w3.org/2000/svg">
<g clip-path="url(#clip0_36_2)">
<path d="M520 830C450.667 830 393.067 817.733 347.2 793.2C301.867 768.667 267.733 734.533 244.8 690.8C222.4 646.533 211.2 594.8 211.2 535.6C211.2 478 222.933 427.333 246.4 383.6C269.867 339.333 304.8 304.933 351.2 280.4C397.6 255.333 454.933 242.8 523.2 242.8C571.2 242.8 611.2 247.067 643.2 255.6C675.2 264.133 699.2 275.6 715.2 290C731.733 304.4 740 320.4 740 338C740 357.733 729.867 375.6 709.6 391.6C689.867 407.067 658.667 414.8 616 414.8C616 372.667 612.267 339.867 604.8 316.4C597.333 292.4 586.667 275.6 572.8 266C558.933 255.867 541.867 250.8 521.6 250.8C487.467 250.8 459.733 260.667 438.4 280.4C417.6 300.133 402.4 331.067 392.8 373.2C383.733 414.8 379.2 468.933 379.2 535.6C379.2 603.333 384 658.267 393.6 700.4C403.733 742.533 420 773.467 442.4 793.2C464.8 812.4 494.4 822 531.2 822C537.067 822 543.2 821.733 549.6 821.2C556.533 820.667 563.733 819.867 571.2 818.8V616.4C571.2 603.067 569.6 592.133 566.4 583.6C563.733 575.067 558.667 568.667 551.2 564.4C544.267 560.133 534.133 558 520.8 558H505.6V550H780V558H772.8C761.6 558 752.8 560.133 746.4 564.4C740.533 568.667 736.533 575.333 734.4 584.4C732.267 593.467 731.2 605.2 731.2 619.6V782C697.067 798 662.667 810 628 818C593.867 826 557.867 830 520 830ZM1132.46 830C1088.19 830 1048.72 823.867 1014.06 811.6C979.39 799.333 952.19 779.867 932.456 753.2C913.256 726 903.656 690.533 903.656 646.8V303.6C903.656 290.267 901.256 280.667 896.456 274.8C892.19 268.4 886.056 264.133 878.056 262C870.59 259.867 862.056 258.8 852.456 258.8H829.256V250.8H1137.26V258.8H1114.06C1104.99 258.8 1096.46 259.867 1088.46 262C1080.99 264.133 1074.86 268.667 1070.06 275.6C1065.79 282 1063.66 292.4 1063.66 306.8V697.2C1063.66 723.867 1067.66 746 1075.66 763.6C1084.19 780.667 1096.46 793.467 1112.46 802C1128.46 810.533 1148.46 814.8 1172.46 814.8C1203.92 814.8 1230.32 808.667 1251.66 796.4C1273.52 783.6 1290.06 764.933 1301.26 740.4C1312.99 715.867 1318.86 686.267 1318.86 651.6V303.6C1318.86 290.267 1316.72 280.667 1312.46 274.8C1308.19 268.4 1302.32 264.133 1294.86 262C1287.39 259.867 1278.86 258.8 1269.26 258.8H1218.06V250.8H1418.06V258.8H1378.06C1368.46 258.8 1359.66 259.867 1351.66 262C1344.19 264.133 1338.06 268.667 1333.26 275.6C1328.99 282 1326.86 292.4 1326.86 306.8V648.4C1326.86 683.6 1320.99 715.067 1309.26 742.8C1298.06 770 1278.32 791.333 1250.06 806.8C1221.79 822.267 1182.59 830 1132.46 830ZM1657.7 830C1614.5 830 1579.3 826.267 1552.1 818.8C1524.9 811.333 1503.83 801.733 1488.9 790C1473.97 778.267 1463.57 766 1457.7 753.2C1452.37 740.4 1449.7 728.933 1449.7 718.8C1449.7 694.8 1454.77 676.4 1464.9 663.6C1475.57 650.8 1488.9 642 1504.9 637.2C1520.9 631.867 1537.97 629.2 1556.1 629.2C1556.1 672.933 1560.37 708.933 1568.9 737.2C1577.97 765.467 1591.57 786.533 1609.7 800.4C1627.83 814.267 1651.03 821.2 1679.3 821.2C1711.83 821.2 1736.63 812.933 1753.7 796.4C1770.77 779.867 1779.3 757.467 1779.3 729.2C1779.3 703.067 1773.17 682.533 1760.9 667.6C1748.63 652.133 1730.77 638.8 1707.3 627.6C1684.37 615.867 1656.1 602.533 1622.5 587.6C1603.3 578.533 1584.37 569.2 1565.7 559.6C1547.03 549.467 1530.23 537.733 1515.3 524.4C1500.9 511.067 1489.17 495.067 1480.1 476.4C1471.57 457.2 1467.3 434.267 1467.3 407.6C1467.3 373.467 1476.63 344.133 1495.3 319.6C1514.5 295.067 1540.37 276.133 1572.9 262.8C1605.43 249.467 1641.97 242.8 1682.5 242.8C1725.7 242.8 1760.9 247.867 1788.1 258C1815.83 268.133 1836.1 280.933 1848.9 296.4C1861.7 311.333 1868.1 327.067 1868.1 343.6C1868.1 363.333 1859.3 380.133 1841.7 394C1824.63 407.867 1794.77 414.8 1752.1 414.8C1752.1 357.733 1744.63 316.4 1729.7 290.8C1715.3 264.667 1692.37 251.6 1660.9 251.6C1644.9 251.6 1630.5 254.8 1617.7 261.2C1604.9 267.6 1594.77 277.2 1587.3 290C1580.37 302.8 1576.9 318.8 1576.9 338C1576.9 358.8 1581.97 376.133 1592.1 390C1602.77 403.333 1619.57 416.133 1642.5 428.4C1665.97 440.133 1696.63 454.533 1734.5 471.6C1763.3 484.4 1789.43 498 1812.9 512.4C1836.9 526.8 1855.83 544.933 1869.7 566.8C1883.57 588.133 1890.5 616.667 1890.5 652.4C1890.5 687.067 1880.9 717.733 1861.7 744.4C1843.03 771.067 1816.1 792.133 1780.9 807.6C1746.23 822.533 1705.17 830 1657.7 830ZM1931.68 822V814H1974.08C1980.48 814 1985.81 812.133 1990.08 808.4C1994.88 804.133 1998.61 798.8 2001.28 792.4C2003.94 786 2005.28 778.8 2005.28 770.8V302C2005.28 291.867 2003.68 283.867 2000.48 278C1997.28 271.6 1992.74 266.8 1986.88 263.6C1981.54 260.4 1975.14 258.8 1967.67 258.8H1931.68V250.8H2210.08C2271.94 250.8 2325.28 260.667 2370.08 280.4C2414.88 299.6 2449.28 328.933 2473.28 368.4C2497.28 407.867 2509.28 458 2509.28 518.8C2509.28 576.933 2497.81 628.933 2474.88 674.8C2452.48 720.667 2418.88 756.667 2374.08 782.8C2329.81 808.933 2275.14 822 2210.08 822H1931.68ZM2190.88 814C2226.61 814 2255.41 804.133 2277.28 784.4C2299.14 764.667 2314.88 733.2 2324.48 690C2334.61 646.8 2339.68 589.733 2339.68 518.8C2339.68 456.4 2334.61 406.267 2324.48 368.4C2314.88 330 2299.14 302.267 2277.28 285.2C2255.94 267.6 2227.41 258.8 2191.68 258.8H2164.48V814H2190.88Z" fill="white"/>
</g>
<defs>
<clipPath id="clip0_36_2">
<rect width="2720" height="1024" fill="white"/>
</clipPath>
</defs>
</svg>
