<svg width="1024" height="1024" viewBox="0 0 1024 1024" fill="none" xmlns="http://www.w3.org/2000/svg">
<path d="M461.36 510.296L461.364 510.288L461.368 510.28C482.602 471.163 493 424.778 493 371.5C493 318.221 482.52 271.905 461.111 232.939C439.898 193.872 409.602 163.877 370.397 143.141C331.357 122.244 285.383 112 232.823 112H56.7062C43.6024 112 33 122.632 33 135.722V607.278C33 620.368 43.6025 631 56.7062 631H234.77C286.701 631 332.268 620.829 371.135 600.098L371.15 600.09L371.165 600.082C410.036 579.179 440.154 549.19 461.36 510.296ZM288.798 484.952L288.782 484.96L288.766 484.967C273.036 492.179 253.528 495.996 229.903 495.996H192.016C189.98 495.996 188.31 494.341 188.31 492.274V250.726C188.31 248.659 189.98 247.004 192.016 247.004H226.009C251.002 247.004 271.426 250.843 287.644 258.076L287.659 258.083L287.674 258.089C303.274 264.984 315.241 276.857 323.567 294.407L323.582 294.437L323.596 294.468C332.073 312.026 336.717 337.434 336.717 371.5C336.717 405.582 332.15 431.015 323.81 448.593L323.796 448.624L323.781 448.655C315.577 466.256 303.89 478.097 288.798 484.952Z" fill="white" stroke="white" stroke-width="20"/>
<path d="M989 611V132C989 120.954 980.046 112 969 112H853.765C842.72 112 833.765 120.954 833.765 132V356.364L674.056 120.777C670.335 115.288 664.134 112 657.502 112H558C546.954 112 538 120.954 538 132V611C538 622.046 546.954 631 558 631H673.235C684.28 631 693.235 622.046 693.235 611V386.813L854.918 622.32C858.649 627.753 864.816 631 871.407 631H969C980.046 631 989 622.046 989 611Z" fill="white" stroke="white" stroke-width="20"/>
<rect x="33" y="747" width="957" height="166" rx="20" fill="white" stroke="white" stroke-width="20"/>
</svg>
