<svg width="55" height="25" viewBox="0 0 55 25" fill="none" xmlns="http://www.w3.org/2000/svg">
<path fill-rule="evenodd" clip-rule="evenodd" d="M28.7969 4.82234C28.673 5.08947 28.639 5.38728 28.6996 5.67388C28.7398 6.05166 28.8283 6.42327 28.9629 6.78019C29.131 7.21726 29.319 7.64946 29.5509 8.18214C29.6043 8.30471 29.66 8.43267 29.7183 8.56731C30.031 9.28898 30.4234 10.2113 30.9468 11.546C31.095 11.9252 31.2265 12.3075 31.359 12.6924C31.4125 12.8479 31.4662 13.004 31.5212 13.1603C31.7182 13.7163 32.0573 14.2158 32.5067 14.6117C32.6976 14.8292 32.9507 14.9878 33.2346 15.0671C33.524 15.1479 33.8317 15.1428 34.1181 15.0524C34.4044 14.9619 34.6558 14.7903 34.8398 14.5599C35.0202 14.3339 35.1274 14.0617 35.1483 13.7773C35.2653 13.2232 35.2254 12.6487 35.0325 12.1145C34.7264 11.2276 34.3777 10.3394 33.9756 9.47065L33.9738 9.46683C33.3123 8.10765 32.6399 6.75785 31.9357 5.40753L31.9304 5.39806C31.7242 5.04627 31.4563 4.73177 31.1387 4.46873C30.9325 4.23394 30.648 4.07556 30.3339 4.02097C30.0131 3.96525 29.6823 4.0214 29.4004 4.17952C29.1338 4.3266 28.9224 4.55166 28.7969 4.82234Z" fill="white"/>
<path fill-rule="evenodd" clip-rule="evenodd" d="M10.5757 23.287C10.8858 22.9224 11.0702 22.4708 11.1016 21.9995L11.0814 21.9644C11.0943 21.6406 11.0486 21.3183 10.9466 21.0126C10.2428 18.6973 9.36605 16.4398 8.32365 14.2586C7.57494 12.7407 6.73055 11.2782 5.89288 9.82728C5.68272 9.48135 5.40583 9.18023 5.07776 8.94064C4.89142 8.8091 4.67356 8.7268 4.44437 8.70136C4.21524 8.67602 3.9821 8.70839 3.76672 8.79541C3.55134 8.88242 3.36057 9.02133 3.21208 9.1994C3.06352 9.37736 2.96214 9.58857 2.91719 9.81364C2.82084 10.1339 2.80208 10.4709 2.86261 10.7968C3.08719 11.8216 3.30876 12.7857 3.61042 13.7504C4.24033 15.5867 4.8995 17.4246 5.55994 19.266C5.75658 19.8142 5.95333 20.3628 6.14945 20.9117C6.37236 21.636 6.64713 22.3427 6.97165 23.0267C7.19172 23.4429 7.55111 23.7689 7.98977 23.9502C8.42852 24.1314 8.91975 24.1569 9.38143 24.0223C9.84682 23.9094 10.2658 23.6515 10.5757 23.287Z" fill="white"/>
<path d="M37.4351 19.0604C37.6284 19.342 37.8887 19.573 38.1923 19.7324C38.4961 19.8918 38.8336 19.9748 39.1747 19.9736C39.5136 19.9726 39.8452 19.8887 40.1402 19.7294C40.3999 19.6017 40.6309 19.4247 40.8202 19.208C41.0094 18.9915 41.1532 18.7398 41.2436 18.467C41.3747 18.1251 41.4955 17.7886 41.6145 17.4568C41.8114 16.9077 42.0042 16.3711 42.2324 15.8423L42.2375 15.8285C42.5544 14.9754 42.9392 14.1498 43.3877 13.3587L43.3935 13.3472C43.8395 12.4708 44.6173 11.808 45.5613 11.4991L45.577 11.493C45.8989 11.3667 46.2519 11.3323 46.5964 11.3935C46.9408 11.4547 47.263 11.609 47.5271 11.8395C47.7912 12.0699 47.9867 12.3671 48.0917 12.698C48.1967 13.0289 48.2068 13.3812 48.1213 13.7138C47.9433 14.4162 47.6835 15.0943 47.3473 15.7346L44.4364 20.1034C44.3978 20.1601 44.3578 20.2181 44.3174 20.2766C44.2268 20.408 44.1344 20.5417 44.0541 20.6699C43.936 20.8586 43.8275 21.0601 43.7651 21.2741C43.7015 21.4928 43.6856 21.7267 43.7544 21.9735C43.8226 22.2177 43.969 22.4534 44.191 22.6845C44.5942 23.0992 45.0043 23.3302 45.4253 23.3853C45.8465 23.4406 46.2303 23.3134 46.5696 23.1062C46.9061 22.9009 47.216 22.6068 47.5006 22.2972C47.7118 22.0675 47.919 21.818 48.1162 21.5805C48.1842 21.4987 48.2509 21.4183 48.3163 21.3406L48.3181 21.3383C49.3933 20.0322 50.3122 18.6063 51.0569 17.0882C51.4943 16.288 51.7759 15.4114 51.8871 14.5031C52.0808 13.3602 51.9183 12.1792 51.421 11.1161C50.9227 10.0507 50.1117 9.15404 49.0955 8.54471C48.0793 7.93538 46.9058 7.64217 45.7305 7.70383C44.557 7.76551 43.4369 8.17822 42.5183 8.88734C41.3005 9.76312 40.306 10.9061 39.6111 12.2294C39.0974 13.1917 38.6006 14.1735 38.1063 15.1504C37.8639 15.6296 37.622 16.1077 37.379 16.5815C37.124 17.05 37.0215 17.5872 37.0853 18.1211C37.122 18.4565 37.2421 18.7793 37.4351 19.0604Z" fill="white"/>
<path d="M39.8013 2.51245C39.6004 2.67794 39.4975 2.82132 39.461 2.96878C39.402 3.16392 39.4741 3.28054 39.6412 3.31872C41.1618 3.7665 43.5592 6.37159 44.4951 7.25227C44.7197 7.45336 45.1137 7.25089 45.1063 6.86113C45.0135 6.43424 42.7808 3.54691 41.7026 2.83726C41.2791 2.56053 40.5604 1.99936 39.8013 2.51245Z" fill="white"/>
<path d="M53.4771 5.23436C53.573 5.39671 53.6083 5.51917 53.5981 5.62736C53.5918 5.77331 53.5162 5.83314 53.3951 5.81605C52.27 5.72771 50.0501 6.86214 49.2155 7.21355C49.0176 7.29102 48.801 7.05453 48.8974 6.795C49.06 6.53243 51.2358 5.16662 52.1257 4.96626C52.4747 4.88889 53.0885 4.69622 53.4771 5.23436Z" fill="white"/>
<path d="M46.9678 0.286828C47.2114 0.259578 47.4144 0.317958 47.4578 0.452128C48.1462 2.33328 47.8345 4.50294 47.34 6.36851C47.3348 6.41559 47.3047 6.47013 47.259 6.51879C47.2258 6.56373 47.1606 6.59379 47.0808 6.60015C46.9948 6.60834 46.9347 6.59126 46.9316 6.53961C46.7961 5.42719 45.2072 0.485827 46.9678 0.286828Z" fill="white"/>
<path d="M27.1965 18.1754C24.6116 21.2121 20.2787 20.445 18.1019 16.5361C16.5529 13.762 16.2808 9.1806 19.6508 6.29095C20.3705 5.68598 21.2309 5.27387 22.1521 5.09305C23.2815 4.93048 24.4332 5.13053 25.4426 5.66462C26.4519 6.1987 27.2673 7.03947 27.7722 8.06679C29.6141 11.4293 29.3525 15.7165 27.1965 18.1754ZM26.15 11.093C25.8753 10.2667 25.3244 9.5613 24.5906 9.09651C24.1753 8.79935 23.6708 8.65488 23.1619 8.68741C22.6529 8.71995 22.1707 8.92752 21.7963 9.27514C20.2997 10.6097 19.9857 13.7726 21.0741 15.6535C21.2129 15.9602 21.4166 16.2327 21.6712 16.4521C21.9258 16.6715 22.2251 16.8324 22.5481 16.9234C22.8711 17.0145 23.21 17.0336 23.5411 16.9794C23.8723 16.9252 24.1875 16.799 24.4651 16.6096C25.2763 15.9781 25.8715 15.1085 26.1678 14.1218C26.4642 13.135 26.447 12.08 26.1186 11.1036L26.15 11.093Z" fill="white"/>
<path fill-rule="evenodd" clip-rule="evenodd" d="M11.7745 6.25671C11.6609 6.66493 11.6297 7.12005 11.6852 7.55803C11.7222 8.13536 11.8033 8.70326 11.9267 9.2487C12.0808 9.91663 12.2533 10.5771 12.4659 11.3912C12.5148 11.5785 12.5659 11.774 12.6194 11.9798C12.9061 13.0826 13.2659 14.4921 13.7458 16.5319C13.8817 17.1113 14.0023 17.6956 14.1237 18.2838C14.1728 18.5214 14.2221 18.7599 14.2725 18.9989C14.4532 19.8485 14.7641 20.6118 15.1762 21.2168C15.3511 21.5493 15.5832 21.7916 15.8435 21.9128C16.1089 22.0363 16.3911 22.0285 16.6536 21.8903C16.9161 21.752 17.1467 21.4898 17.3154 21.1376C17.4808 20.7924 17.5791 20.3763 17.5982 19.9417C17.7056 19.0949 17.6689 18.217 17.4921 17.4007C17.2114 16.0453 16.8917 14.6879 16.523 13.3603L16.5213 13.3544C15.9148 11.2773 15.2982 9.21456 14.6525 7.151L14.6477 7.13652C14.4586 6.59891 14.213 6.11829 13.9217 5.71631C13.7327 5.35751 13.4719 5.11547 13.1838 5.03205C12.8897 4.94689 12.5863 5.03271 12.3279 5.27435C12.0834 5.49912 11.8896 5.84304 11.7745 6.25671Z" fill="white"/>
<path fill-rule="evenodd" clip-rule="evenodd" d="M37.5735 6.62173C37.1598 6.85532 36.7743 7.19144 36.471 7.58268C36.0426 8.06967 35.6567 8.58421 35.3221 9.11451C34.9147 9.76623 34.5278 10.4266 34.051 11.2406C33.9412 11.4278 33.8267 11.6234 33.706 11.8289C33.059 12.9306 32.2268 14.3333 30.9901 16.3309C30.6384 16.898 30.2708 17.4568 29.9008 18.0195C29.7513 18.2468 29.6013 18.4749 29.4518 18.7043C28.9214 19.5212 28.5627 20.3728 28.4098 21.1792C28.2849 21.5815 28.2769 21.9576 28.3871 22.26C28.4996 22.5683 28.7295 22.7859 29.0472 22.8845C29.365 22.983 29.7557 22.9579 30.1686 22.8124C30.5734 22.6698 30.9813 22.4179 31.341 22.0885C32.0974 21.5023 32.7644 20.7772 33.2714 19.9898C34.1234 18.6927 34.9461 17.3631 35.7063 16.0182L35.7096 16.0122C36.8755 13.8846 38.0221 11.7604 39.1462 9.61247L39.1539 9.59716C39.4302 9.02107 39.6165 8.44527 39.7043 7.89567C39.8389 7.46131 39.824 7.06265 39.6618 6.76816C39.4961 6.46744 39.1875 6.29495 38.791 6.28163C38.419 6.266 37.9927 6.38502 37.5735 6.62173Z" fill="white"/>
<path fill-rule="evenodd" clip-rule="evenodd" d="M14.8296 11.3264C14.5379 11.2897 14.2368 11.3389 13.9687 11.4668C13.6062 11.6014 13.2608 11.7759 12.9407 11.9866C12.5494 12.2474 12.1675 12.5241 11.6969 12.8654C11.5886 12.9438 11.4755 13.0258 11.3565 13.1118C10.7186 13.5728 9.90158 14.1557 8.70893 14.9608C8.37 15.189 8.02414 15.4037 7.67593 15.6199C7.53524 15.7073 7.39409 15.7949 7.25289 15.8837C6.75124 16.2009 6.33814 16.6261 6.05265 17.1195C5.88271 17.3421 5.78532 17.603 5.7731 17.8696C5.76063 18.1414 5.83705 18.4064 5.99245 18.6303C6.14793 18.8543 6.37517 19.0266 6.6447 19.1251C6.90894 19.2216 7.20184 19.2426 7.48668 19.1856C8.05929 19.1408 8.6156 18.9546 9.09674 18.6468C9.89889 18.1479 10.6924 17.6118 11.4545 17.0347L11.4578 17.0321C12.6425 16.101 13.8154 15.163 14.9814 14.1974L14.9895 14.1903C15.288 13.9191 15.5355 13.6042 15.7208 13.2599C15.9041 13.0195 15.9941 12.7316 15.975 12.4453C15.9554 12.153 15.8234 11.8814 15.6024 11.6792C15.3958 11.4872 15.1252 11.3637 14.8296 11.3264Z" fill="white"/>
<path fill-rule="evenodd" clip-rule="evenodd" d="M51.5629 18.2108C51.4488 17.9398 51.2557 17.7036 51.0108 17.5354C50.7131 17.2887 50.3892 17.0769 50.0467 16.905C49.6252 16.6965 49.1946 16.5042 48.6638 16.2672C48.5417 16.2126 48.4141 16.1557 48.2801 16.0956C47.5619 15.7737 46.6486 15.3576 45.3551 14.7273C44.988 14.5479 44.6291 14.3557 44.2678 14.1622C44.1218 14.0841 43.9753 14.0056 43.8278 13.9278C43.3023 13.6519 42.7275 13.5068 42.1574 13.5063C41.8797 13.4704 41.6051 13.5165 41.3681 13.6392C41.1265 13.7643 40.9352 13.963 40.8189 14.2095C40.7027 14.4561 40.6671 14.7391 40.7166 15.0218C40.7651 15.2988 40.8934 15.563 41.0852 15.7812C41.4103 16.2547 41.8497 16.6434 42.3568 16.9061C43.1899 17.3514 44.051 17.7706 44.9318 18.1419L44.9358 18.1435C46.3344 18.7039 47.7332 19.2507 49.1525 19.7777L49.1627 19.7812C49.5468 19.9041 49.9432 19.961 50.334 19.9493C50.6339 19.9879 50.9282 19.9218 51.1666 19.7621C51.41 19.599 51.5791 19.3489 51.6438 19.0564C51.7067 18.7815 51.6784 18.4854 51.5629 18.2108Z" fill="white"/>
</svg>
