<svg width="216" height="100" viewBox="0 0 216 100" fill="none" xmlns="http://www.w3.org/2000/svg">
<path d="M47.505 73L42.945 25H44.73L49.08 71.56H60.585L63.945 31.06H67.89L71.25 71.56H82.83L87.225 25H89.01L84.39 73H69.69L66.33 32.5H65.505L62.145 73H47.505ZM50.22 70.12L48.78 51.715L46.575 25H48.42L50.475 50.755L51.81 68.68H57.885L58.92 51.43L61.005 28.18H70.83L72.915 51.43L73.95 68.68H80.085L81.42 50.755L83.535 25H85.38L83.115 51.715L81.675 70.12H72.39L71.385 52.72L69.33 29.62H62.505L60.45 52.72L59.445 70.12H50.22ZM53.025 67.24L51.99 49.855L50.04 25H51.825L53.55 49.075L54.405 65.8H55.245L55.98 49.135L57.765 25.3H74.07L75.855 49.135L76.59 65.8H77.49L78.345 49.075L80.07 25H81.855L79.905 49.855L78.87 67.24H75.15L74.37 50.23L72.57 26.74H59.265L57.465 50.23L56.685 67.24H53.025ZM104.177 73.6C99.7973 73.6 96.6273 72.665 94.6673 70.795C92.7173 68.925 91.6673 65.84 91.5173 61.54C91.4373 59.11 91.3723 56.615 91.3223 54.055C91.2823 51.495 91.2723 48.805 91.2923 45.985C91.3223 43.155 91.3973 40.14 91.5173 36.94C91.6873 32.37 92.7773 29.14 94.7873 27.25C96.8073 25.35 99.9373 24.4 104.177 24.4C108.367 24.4 111.427 25.33 113.357 27.19C115.287 29.05 116.387 32.12 116.657 36.4C116.737 37.63 116.777 38.78 116.777 39.85C116.777 40.91 116.737 41.95 116.657 42.97H114.857C114.937 41.84 114.977 40.77 114.977 39.76C114.977 38.74 114.937 37.655 114.857 36.505C114.617 32.715 113.677 29.99 112.037 28.33C110.397 26.67 107.777 25.84 104.177 25.84C100.487 25.84 97.7923 26.695 96.0923 28.405C94.4023 30.115 93.4773 32.985 93.3173 37.015C93.2073 39.855 93.1323 42.575 93.0923 45.175C93.0623 47.765 93.0673 50.385 93.1073 53.035C93.1473 55.675 93.2173 58.49 93.3173 61.48C93.4573 65.21 94.3423 67.925 95.9723 69.625C97.6023 71.315 100.337 72.16 104.177 72.16C107.857 72.16 110.527 71.33 112.187 69.67C113.857 68.01 114.787 65.27 114.977 61.45C115.047 60.1 115.097 58.83 115.127 57.64C115.157 56.45 115.172 55.315 115.172 54.235C115.172 53.155 115.152 52.11 115.112 51.1H104.777V49.54H116.837C116.937 51.41 116.977 53.31 116.957 55.24C116.947 57.17 116.887 59.27 116.777 61.54C116.567 65.84 115.487 68.925 113.537 70.795C111.597 72.665 108.477 73.6 104.177 73.6ZM104.177 70.72C101.027 70.72 98.7573 69.995 97.3673 68.545C95.9773 67.085 95.2273 64.71 95.1173 61.42C95.0173 58.46 94.9473 55.68 94.9073 53.08C94.8673 50.47 94.8623 47.875 94.8923 45.295C94.9323 42.705 95.0073 39.965 95.1173 37.075C95.2573 33.575 96.0273 31.07 97.4273 29.56C98.8273 28.04 101.077 27.28 104.177 27.28C107.267 27.28 109.467 28.035 110.777 29.545C112.097 31.055 112.857 33.41 113.057 36.61C113.137 37.88 113.177 38.935 113.177 39.775C113.187 40.615 113.152 41.68 113.072 42.97H111.272C111.332 41.99 111.367 41 111.377 40C111.387 39 111.352 37.93 111.272 36.79C111.092 33.9 110.452 31.835 109.352 30.595C108.262 29.345 106.537 28.72 104.177 28.72C101.717 28.72 99.9173 29.37 98.7773 30.67C97.6473 31.96 97.0273 34.115 96.9173 37.135C96.8073 40.015 96.7323 42.745 96.6923 45.325C96.6623 47.895 96.6673 50.475 96.7073 53.065C96.7473 55.655 96.8173 58.42 96.9173 61.36C97.0173 64.19 97.6273 66.22 98.7473 67.45C99.8673 68.67 101.677 69.28 104.177 69.28C106.587 69.28 108.357 68.67 109.487 67.45C110.627 66.22 111.252 64.175 111.362 61.315C111.402 60.315 111.427 59.145 111.437 57.805C111.447 56.465 111.447 55.27 111.437 54.22H104.777V52.66H113.297C113.347 54.12 113.357 55.515 113.327 56.845C113.307 58.165 113.257 59.675 113.177 61.375C113.017 64.595 112.267 66.96 110.927 68.47C109.597 69.97 107.347 70.72 104.177 70.72ZM104.177 67.84C102.187 67.84 100.797 67.3 100.007 66.22C99.2273 65.13 98.7973 63.485 98.7173 61.285C98.6173 58.455 98.5473 55.77 98.5073 53.23C98.4673 50.69 98.4623 48.125 98.4923 45.535C98.5323 42.945 98.6073 40.155 98.7173 37.165C98.8173 34.665 99.2923 32.875 100.142 31.795C100.992 30.705 102.337 30.16 104.177 30.16C105.917 30.16 107.197 30.68 108.017 31.72C108.837 32.75 109.322 34.46 109.472 36.85C109.532 37.82 109.562 38.81 109.562 39.82C109.572 40.82 109.542 41.87 109.472 42.97H107.672C107.722 42.11 107.752 41.355 107.762 40.705C107.782 40.055 107.782 39.435 107.762 38.845C107.742 38.255 107.712 37.63 107.672 36.97C107.552 35.05 107.222 33.675 106.682 32.845C106.142 32.015 105.307 31.6 104.177 31.6C102.967 31.6 102.072 32.035 101.492 32.905C100.922 33.775 100.597 35.205 100.517 37.195C100.407 40.115 100.332 42.85 100.292 45.4C100.262 47.95 100.267 50.5 100.307 53.05C100.347 55.59 100.417 58.315 100.517 61.225C100.587 63.065 100.897 64.39 101.447 65.2C101.997 66 102.907 66.4 104.177 66.4C105.397 66.4 106.307 66.005 106.907 65.215C107.517 64.415 107.872 63.04 107.972 61.09C107.992 60.71 107.987 60.09 107.957 59.23C107.937 58.37 107.917 57.74 107.897 57.34H104.777V55.78H109.742C109.762 56.69 109.777 57.615 109.787 58.555C109.807 59.495 109.797 60.38 109.757 61.21C109.647 63.57 109.157 65.265 108.287 66.295C107.427 67.325 106.057 67.84 104.177 67.84ZM130.366 73V29.68H119.026V28.12H143.446V29.68H132.166V73H130.366ZM126.766 73V32.8H119.026V31.24H128.566V73H126.766ZM133.966 73V31.24H143.446V32.8H135.766V73H133.966ZM119.026 26.56V25H143.446V26.56H119.026ZM146.177 73V25H157.277C160.047 25 162.387 25.365 164.297 26.095C166.217 26.815 167.677 28.08 168.677 29.89C169.677 31.69 170.177 34.21 170.177 37.45C170.177 37.82 170.172 38.175 170.162 38.515C170.162 38.845 170.152 39.18 170.132 39.52C170.112 39.85 170.087 40.205 170.057 40.585C169.897 42.545 169.387 44.125 168.527 45.325C167.677 46.515 166.447 47.475 164.837 48.205V48.52C166.547 49.19 167.902 50.3 168.902 51.85C169.912 53.39 170.437 55.3 170.477 57.58C170.487 58.14 170.492 58.605 170.492 58.975C170.492 59.345 170.487 59.67 170.477 59.95C170.477 60.23 170.467 60.51 170.447 60.79C170.427 61.07 170.397 61.4 170.357 61.78C170.087 64.64 169.447 66.885 168.437 68.515C167.437 70.145 166.037 71.3 164.237 71.98C162.437 72.66 160.197 73 157.517 73H146.177ZM147.977 71.44H157.517C160.927 71.44 163.512 70.75 165.272 69.37C167.042 67.99 168.137 65.46 168.557 61.78C168.617 61.29 168.652 60.85 168.662 60.46C168.682 60.06 168.692 59.645 168.692 59.215C168.692 58.775 168.687 58.255 168.677 57.655C168.637 55.205 168.132 53.28 167.162 51.88C166.202 50.48 164.762 49.385 162.842 48.595V48.19C164.622 47.38 165.932 46.39 166.772 45.22C167.612 44.04 168.107 42.485 168.257 40.555C168.287 40.155 168.312 39.79 168.332 39.46C168.352 39.13 168.362 38.805 168.362 38.485C168.372 38.155 168.377 37.81 168.377 37.45C168.377 34.61 167.947 32.405 167.087 30.835C166.227 29.255 164.972 28.15 163.322 27.52C161.672 26.88 159.657 26.56 157.277 26.56H147.977V71.44ZM149.777 69.88V28.12H157.277C159.197 28.12 160.852 28.38 162.242 28.9C163.632 29.41 164.702 30.34 165.452 31.69C166.202 33.03 166.577 34.95 166.577 37.45C166.577 37.78 166.567 38.105 166.547 38.425C166.537 38.735 166.522 39.065 166.502 39.415C166.492 39.765 166.477 40.155 166.457 40.585C166.407 42.425 165.957 43.955 165.107 45.175C164.257 46.395 162.837 47.445 160.847 48.325V48.535C162.937 49.375 164.452 50.515 165.392 51.955C166.342 53.395 166.837 55.32 166.877 57.73C166.887 58.31 166.892 58.805 166.892 59.215C166.892 59.625 166.882 60.025 166.862 60.415C166.852 60.805 166.822 61.27 166.772 61.81C166.522 64.82 165.642 66.92 164.132 68.11C162.622 69.29 160.417 69.88 157.517 69.88H149.777ZM151.577 47.8H156.152C158.722 47.8 160.737 47.3 162.197 46.3C163.667 45.29 164.492 43.385 164.672 40.585C164.702 40.185 164.722 39.81 164.732 39.46C164.752 39.11 164.762 38.77 164.762 38.44C164.772 38.11 164.777 37.78 164.777 37.45C164.777 34.41 164.127 32.355 162.827 31.285C161.537 30.215 159.687 29.68 157.277 29.68H151.577V47.8ZM153.377 46.24V31.24H157.277C159.107 31.24 160.512 31.67 161.492 32.53C162.482 33.39 162.977 35.03 162.977 37.45C162.977 37.81 162.972 38.16 162.962 38.5C162.962 38.83 162.952 39.165 162.932 39.505C162.922 39.845 162.902 40.205 162.872 40.585C162.722 42.815 162.057 44.315 160.877 45.085C159.707 45.855 158.132 46.24 156.152 46.24H153.377ZM155.177 44.68H156.152C157.642 44.68 158.807 44.4 159.647 43.84C160.497 43.27 160.972 42.185 161.072 40.585C161.112 39.965 161.137 39.42 161.147 38.95C161.167 38.47 161.177 37.97 161.177 37.45C161.177 35.58 160.827 34.34 160.127 33.73C159.427 33.11 158.477 32.8 157.277 32.8H155.177V44.68ZM151.577 68.32H157.517C159.907 68.32 161.702 67.83 162.902 66.85C164.102 65.86 164.797 64.16 164.987 61.75C165.027 61.33 165.052 60.925 165.062 60.535C165.082 60.145 165.092 59.73 165.092 59.29C165.092 58.85 165.087 58.355 165.077 57.805C165.027 54.645 164.307 52.45 162.917 51.22C161.537 49.98 159.482 49.36 156.752 49.36H151.577V68.32ZM153.377 66.76V50.92H156.752C158.742 50.92 160.317 51.4 161.477 52.36C162.637 53.32 163.242 55.18 163.292 57.94C163.302 58.4 163.302 58.835 163.292 59.245C163.292 59.645 163.282 60.05 163.262 60.46C163.242 60.86 163.212 61.3 163.172 61.78C163.022 63.61 162.487 64.9 161.567 65.65C160.657 66.39 159.307 66.76 157.517 66.76H153.377ZM155.177 65.2H157.517C158.737 65.2 159.667 64.94 160.307 64.42C160.947 63.89 161.307 63.005 161.387 61.765C161.417 61.295 161.437 60.865 161.447 60.475C161.467 60.085 161.482 59.69 161.492 59.29C161.502 58.89 161.502 58.45 161.492 57.97C161.462 56 161.062 54.595 160.292 53.755C159.532 52.905 158.352 52.48 156.752 52.48H155.177V65.2Z" fill="white"/>
</svg>
